<svg xmlns="http://www.w3.org/2000/svg" width="50" height="50" viewBox="0 0 50 50">
  <title>Лента3</title>
  <g id="Layer_1" data-name="Layer 1">
    <path d="M41.17,25.12A16.27,16.27,0,0,1,28.41,41a1.66,1.66,0,0,0-1,.58L25.82,43.6a1.07,1.07,0,0,1-1.51.15h0l-.15-.15-1.64-2.06a1.66,1.66,0,0,0-1-.58A16.16,16.16,0,1,1,41.16,25.12Z" style="fill: #fff;stroke: #383838;stroke-miterlimit: 10;stroke-width: 0.25px"/>
  </g>
  <g id="Layer_3" data-name="Layer 3">
    <g>
      <path d="M33.79,19.59h-1a.47.47,0,0,1-.47-.47v-.62a.47.47,0,0,1,.72-.41l1,.62a.47.47,0,0,1-.24.88Z" style="fill: #383838"/>
      <path d="M29.63,19.76a.47.47,0,0,1-.31-.11l-1.22-1a.47.47,0,0,1,.21-.82l2.61-.56a.47.47,0,0,1,.46.78L30,19.6A.47.47,0,0,1,29.63,19.76Z" style="fill: #383838"/>
      <path d="M25.89,19.59a.47.47,0,0,1-.38-.19l-1.6-2.19a.47.47,0,0,1,0-.51.47.47,0,0,1,.45-.24l2.76.24a.47.47,0,0,1,.37.71l-1.16,2a.48.48,0,0,1-.39.23Z" style="fill: #383838"/>
      <path d="M23.34,19.59l-.12,0-.77-.21a.47.47,0,0,1-.28-.71l.42-.65a.47.47,0,0,1,.84.07l.36.86a.47.47,0,0,1-.44.66Z" style="fill: #383838"/>
      <path d="M20.47,19.59a.47.47,0,0,1-.31-.12l-1.51-1.33a.47.47,0,0,1,.23-.82l2.08-.39a.47.47,0,0,1,.54.61l-.56,1.72a.47.47,0,0,1-.33.31Z" style="fill: #383838"/>
      <path d="M17.53,19.59h-1a.47.47,0,0,1-.24-.88l1-.62a.47.47,0,0,1,.72.41v.62A.47.47,0,0,1,17.53,19.59Z" style="fill: #383838"/>
      <path d="M33,21.25a2.19,2.19,0,0,1,0,4.38H17a2.19,2.19,0,0,1,0-4.38H33m0-1.06H17a3.25,3.25,0,0,0,0,6.5H33a3.25,3.25,0,0,0,0-6.5Z" style="fill: #383838"/>
      <circle cx="32.99" cy="23.44" r="1.77" style="fill: #383838"/>
      <circle cx="17.02" cy="23.44" r="1.77" style="fill: #383838"/>
    </g>
  </g>
  <g id="_3" data-name="3">
    <g>
      <path d="M24,32.71h1v.83H23.92l-.15,1.21h-.86l.15-1.21H21.95l-.15,1.21h-.85l.15-1.21h-1v-.83H21.2l.16-1.23h-1v-.83h1.09l.15-1.21h.85l-.15,1.21h1.12l.15-1.21h.85l-.15,1.21h1v.83H24.17Zm-.86,0,.16-1.23H22.21L22,32.71Z" style="fill: #383838"/>
      <path d="M29.27,32.12a1.43,1.43,0,0,1,.37,1,1.58,1.58,0,0,1-.24.85,1.7,1.7,0,0,1-.74.63,2.83,2.83,0,0,1-1.22.24,4.2,4.2,0,0,1-1.11-.15,2.85,2.85,0,0,1-.92-.42l.48-.94a2.32,2.32,0,0,0,.7.35,2.71,2.71,0,0,0,.82.12,1.3,1.3,0,0,0,.73-.18.58.58,0,0,0,.27-.51q0-.65-1-.65h-.56v-.81l1.09-1.24H25.68v-1H29.4v.8L28.2,31.6A1.79,1.79,0,0,1,29.27,32.12Z" style="fill: #383838"/>
    </g>
  </g>
</svg>
