<svg xmlns="http://www.w3.org/2000/svg" width="50" height="50" viewBox="0 0 50 50">
  <title>Лента2</title>
  <g id="Layer_1" data-name="Layer 1">
    <path d="M41.17,25.12A16.27,16.27,0,0,1,28.41,41a1.66,1.66,0,0,0-1,.58L25.82,43.6a1.07,1.07,0,0,1-1.51.15h0l-.15-.15-1.64-2.06a1.66,1.66,0,0,0-1-.58A16.16,16.16,0,1,1,41.16,25.12Z" style="fill: #fff;stroke: #383838;stroke-miterlimit: 10;stroke-width: 0.25px"/>
  </g>
  <g id="Layer_3" data-name="Layer 3">
    <g>
      <path d="M33.79,19.59h-1a.47.47,0,0,1-.47-.47v-.62a.47.47,0,0,1,.72-.41l1,.62a.47.47,0,0,1-.24.88Z" style="fill: #383838"/>
      <path d="M29.63,19.76a.47.47,0,0,1-.31-.11l-1.22-1a.47.47,0,0,1,.21-.82l2.61-.56a.47.47,0,0,1,.46.78L30,19.6A.47.47,0,0,1,29.63,19.76Z" style="fill: #383838"/>
      <path d="M25.89,19.59a.47.47,0,0,1-.38-.19l-1.6-2.19a.47.47,0,0,1,0-.51.47.47,0,0,1,.45-.24l2.76.24a.47.47,0,0,1,.37.71l-1.16,2a.48.48,0,0,1-.39.23Z" style="fill: #383838"/>
      <path d="M23.34,19.59l-.12,0-.77-.21a.47.47,0,0,1-.28-.71l.42-.65a.47.47,0,0,1,.84.07l.36.86a.47.47,0,0,1-.44.66Z" style="fill: #383838"/>
      <path d="M20.47,19.59a.47.47,0,0,1-.31-.12l-1.51-1.33a.47.47,0,0,1,.23-.82l2.08-.39a.47.47,0,0,1,.54.61l-.56,1.72a.47.47,0,0,1-.33.31Z" style="fill: #383838"/>
      <path d="M17.53,19.59h-1a.47.47,0,0,1-.24-.88l1-.62a.47.47,0,0,1,.72.41v.62A.47.47,0,0,1,17.53,19.59Z" style="fill: #383838"/>
      <path d="M33,21.25a2.19,2.19,0,0,1,0,4.38H17a2.19,2.19,0,0,1,0-4.38H33m0-1.06H17a3.25,3.25,0,0,0,0,6.5H33a3.25,3.25,0,0,0,0-6.5Z" style="fill: #383838"/>
      <circle cx="32.99" cy="23.44" r="1.77" style="fill: #383838"/>
      <circle cx="17.02" cy="23.44" r="1.77" style="fill: #383838"/>
    </g>
  </g>
  <g id="_2" data-name="2">
    <g>
      <path d="M24,32.8h1v.83H23.92l-.15,1.22h-.86l.15-1.22H21.95l-.15,1.22h-.85l.15-1.22h-1V32.8H21.2l.16-1.23h-1v-.83h1.09l.15-1.22h.85l-.15,1.22h1.12l.15-1.22h.85l-.15,1.22h1v.83H24.17Zm-.86,0,.16-1.23H22.21L22,32.8Z" style="fill: #383838"/>
      <path d="M29.68,33.84v1h-4V34l2-1.94a2.16,2.16,0,0,0,.44-.54,1,1,0,0,0,.11-.44.59.59,0,0,0-.22-.49,1,1,0,0,0-.63-.17,1.46,1.46,0,0,0-.63.13,1.21,1.21,0,0,0-.47.4l-.9-.58a2.1,2.1,0,0,1,.86-.73,2.86,2.86,0,0,1,1.25-.26,2.56,2.56,0,0,1,1,.19,1.59,1.59,0,0,1,.69.55,1.41,1.41,0,0,1,.25.83,1.86,1.86,0,0,1-.18.81,3.15,3.15,0,0,1-.71.87L27.4,33.84Z" style="fill: #383838"/>
    </g>
  </g>
</svg>
