<svg id="Layer_7" data-name="Layer 7" xmlns="http://www.w3.org/2000/svg" width="50" height="50" viewBox="0 0 50 50" style="text-align: center">
  <title>Пин каска М</title>
  
  
    <circle cx="24.5" cy="24.5" style="text-align: center"  width="3" height="3" fill="none" stroke="#fcfc0058" stroke-width="30">
			
				<animate accumulate="none" additive="replace" attributeName="r" begin="0s" calcMode="linear" dur="1s" fill="remove" from="1" repeatCount="indefinite" restart="always" to="12">
				</animate>
			
				<animate accumulate="none" additive="replace" attributeName="opacity" begin="0s" calcMode="linear" dur="1s" fill="remove" from="2" repeatCount="indefinite" restart="always" to="0">
				</animate>
                </circle>
  
  

  <g id="Layer_1" data-name="Layer 1">
    <path d="M41.17,25.12A16.27,16.27,0,0,1,28.41,41a1.66,1.66,0,0,0-1,.58L25.82,43.6a1.07,1.07,0,0,1-1.51.15h0l-.15-.15-1.64-2.06a1.66,1.66,0,0,0-1-.58A16.16,16.16,0,1,1,41.16,25.12Z" style="fill: #fff;stroke: #383838;stroke-miterlimit: 10;stroke-width: 0.25px"/>
  </g>
  <g id="Layer_3" data-name="Layer 3">
    <g>
      <path d="M33.79,19.59h-1a.47.47,0,0,1-.47-.47v-.62a.47.47,0,0,1,.72-.41l1,.62a.47.47,0,0,1-.24.88Z" style="fill: #383838"/>
      <path d="M29.63,19.76a.47.47,0,0,1-.31-.11l-1.22-1a.47.47,0,0,1,.21-.82l2.61-.56a.47.47,0,0,1,.46.78L30,19.6A.47.47,0,0,1,29.63,19.76Z" style="fill: #383838"/>
      <path d="M25.89,19.59a.47.47,0,0,1-.38-.19l-1.6-2.19a.47.47,0,0,1,0-.51.47.47,0,0,1,.45-.24l2.76.24a.47.47,0,0,1,.37.71l-1.16,2a.48.48,0,0,1-.39.23Z" style="fill: #383838"/>
      <path d="M23.34,19.59l-.12,0-.77-.21a.47.47,0,0,1-.28-.71l.42-.65a.47.47,0,0,1,.84.07l.36.86a.47.47,0,0,1-.44.66Z" style="fill: #383838"/>
      <path d="M20.47,19.59a.47.47,0,0,1-.31-.12l-1.51-1.33a.47.47,0,0,1,.23-.82l2.08-.39a.47.47,0,0,1,.54.61l-.56,1.72a.47.47,0,0,1-.33.31Z" style="fill: #383838"/>
      <path d="M17.53,19.59h-1a.47.47,0,0,1-.24-.88l1-.62a.47.47,0,0,1,.72.41v.62A.47.47,0,0,1,17.53,19.59Z" style="fill: #383838"/>
      <path d="M33,21.25a2.19,2.19,0,0,1,0,4.38H17a2.19,2.19,0,0,1,0-4.38H33m0-1.06H17a3.25,3.25,0,0,0,0,6.5H33a3.25,3.25,0,0,0,0-6.5Z" style="fill: #383838"/>
      <circle cx="32.99" cy="23.44" r="1.77" style="fill: #383838"/>
      <circle cx="17.02" cy="23.44" r="1.77" style="fill: #383838"/>
      <g>
        <path d="M25.09,32.76h1v.84H25l-.15,1.24H24l.15-1.24H23l-.15,1.24H22l.15-1.24h-1v-.84h1.11l.16-1.25h-1v-.84h1.11l.15-1.24h.87l-.15,1.24h1.14l.15-1.24h.87l-.15,1.24h1v.84H25.24Zm-.87,0,.16-1.25H23.24l-.16,1.25Z" style="fill: #383838"/>
        <path d="M28.9,29.43v5.41H27.64v-4.4H26.56v-1Z" style="fill: #383838"/>
      </g>
    </g>
  </g>
</svg>
