<svg xmlns="http://www.w3.org/2000/svg" width="32" height="32" viewBox="0 0 32 32">
  <title>Icons</title>
  <g id="_11_initialView_small" data-name="11 initialView_small">
    <path d="M5.33,11.68A11.35,11.35,0,0,1,26.93,13a1.75,1.75,0,1,1-3.4.85A7.85,7.85,0,0,0,8.78,12.49C8.33,13.48,4.84,12.94,5.33,11.68Z" style="fill: #383838"/>
    <polygon points="6.08 14.74 4.76 9.78 10.6 11.78 6.08 14.74" style="fill: #383838;stroke: #383838;stroke-linejoin: round"/>
    <path d="M26.67,20.32A11.35,11.35,0,0,1,5.07,19a1.75,1.75,0,0,1,3.4-.85,7.85,7.85,0,0,0,14.75,1.34C23.67,18.52,27.16,19.06,26.67,20.32Z" style="fill: #383838"/>
    <polygon points="25.93 17.26 27.24 22.22 21.4 20.22 25.93 17.26" style="fill: #383838;stroke: #383838;stroke-linejoin: round"/>
  </g>
</svg>
