{"asset":{"generator":"3D Builder","version":"2.0"},"scene":0,"scenes":[{"nodes":[0]}],"nodes":[{"mesh":0,"matrix":[1,0,0,0,0,-1.1920928955078125E-7,-0.99999988079071045,0,0,0.99999988079071045,-1.1920928955078125E-7,0,0,6.68215358538302E-17,-7.96574860468806E-24,1]}],"meshes":[{"primitives":[{"attributes":{"POSITION":0},"mode":4,"indices":1,"material":0}]}],"materials":[{"name":"Translucent","pbrMetallicRoughness":{"baseColorFactor":[0.23245406150817871,0.23245406150817871,0.23245406150817871,1],"metallicFactor":0,"roughnessFactor":1},"alphaMode":"OPAQUE"}],"accessors":[{"bufferView":0,"byteOffset":0,"count":206010,"componentType":5126,"type":"VEC3","min":[-0.019617099314928055,-0.011398193426430225,-6.68215424712751E-17],"max":[0.019617099314928055,0.011398193426430225,0.030473681166768074]},{"bufferView":1,"byteOffset":0,"count":1290972,"componentType":5125,"type":"SCALAR"}],"bufferViews":[{"buffer":0,"byteOffset":0,"byteLength":2472120,"byteStride":12,"target":34962},{"buffer":0,"byteOffset":2472120,"byteLength":5163888,"target":34963}],"buffers":[{"byteLength":7636008,"uri":"dom_new_v5.bin"}]}