{"asset":{"generator":"3D Builder","version":"2.0"},"scene":0,"scenes":[{"nodes":[0]}],"nodes":[{"mesh":0,"matrix":[0.99999994039535522,0,0,0,0,-1.1920928244535389E-7,-0.99999982118606567,0,0,0.99999982118606567,-1.1920928244535389E-7,0,0,0.0027999996673315763,-3.3378599884059668E-10,1]}],"meshes":[{"primitives":[{"attributes":{"POSITION":0},"mode":4,"indices":3,"material":0},{"attributes":{"POSITION":1,"COLOR_0":2},"mode":4,"indices":4}]}],"materials":[{"name":"Regular","pbrMetallicRoughness":{"baseColorFactor":[1,1,1,1],"metallicFactor":0,"roughnessFactor":1},"alphaMode":"OPAQUE"}],"accessors":[{"bufferView":0,"byteOffset":0,"count":493648,"componentType":5126,"type":"VEC3","min":[-0.00031500001205131412,0.0025125001557171345,-0.0028000001329928637],"max":[0.048241004347801208,0.02460000105202198,0.027265582233667374]},{"bufferView":0,"byteOffset":5923776,"count":50768,"componentType":5126,"type":"VEC3","min":[-0.0013051250716671348,0.002450000261887908,-0.0028000001329928637],"max":[0.048200003802776337,0.02500000037252903,0.0276000015437603]},{"bufferView":1,"byteOffset":0,"count":50768,"componentType":5121,"type":"VEC4","normalized":true},{"bufferView":2,"byteOffset":0,"count":2927448,"componentType":5125,"type":"SCALAR"},{"bufferView":2,"byteOffset":11709792,"count":428688,"componentType":5125,"type":"SCALAR"}],"bufferViews":[{"buffer":0,"byteOffset":0,"byteLength":6532992,"byteStride":12,"target":34962},{"buffer":0,"byteOffset":6532992,"byteLength":203072,"byteStride":4,"target":34962},{"buffer":0,"byteOffset":6736064,"byteLength":13424544,"target":34963}],"buffers":[{"byteLength":20160608,"uri":"dom_renga_original.bin"}]}